<?xml version="1.0" encoding="iso-8859-1"?>
<!-- Generator: Adobe Illustrator 19.0.0, SVG Export Plug-In . SVG Version: 6.00 Build 0)  -->
<svg version="1.1" id="Capa_1" xmlns="http://www.w3.org/2000/svg" xmlns:xlink="http://www.w3.org/1999/xlink" x="0px" y="0px"
	 viewBox="0 0 504.58 504.58" style="enable-background:new 0 0 504.58 504.58;" xml:space="preserve">
<circle style="fill:#FCBD5E;" cx="252.295" cy="252.29" r="248.123"/>
<circle style="fill:#FFFFFF;" cx="252.295" cy="252.29" r="172.505"/>
<g>
	<path id="SVGCleanerId_0" style="fill:#183651;" d="M252.295,432.672c-99.249,0-180.382-81.132-180.382-180.382
		S153.046,71.909,252.295,71.909s180.382,81.132,180.382,180.382S351.545,432.672,252.295,432.672z M252.295,87.662
		c-90.585,0-164.628,74.043-164.628,164.628s74.043,164.628,164.628,164.628s164.628-74.043,164.628-164.628
		S342.88,87.662,252.295,87.662z"/>
</g>
<circle style="fill:#FFFFFF;" cx="252.295" cy="252.29" r="172.505"/>
<g>
	<path id="SVGCleanerId_0_1_" style="fill:#183651;" d="M252.295,432.672c-99.249,0-180.382-81.132-180.382-180.382
		S153.046,71.909,252.295,71.909s180.382,81.132,180.382,180.382S351.545,432.672,252.295,432.672z M252.295,87.662
		c-90.585,0-164.628,74.043-164.628,164.628s74.043,164.628,164.628,164.628s164.628-74.043,164.628-164.628
		S342.88,87.662,252.295,87.662z"/>
</g>
<path style="fill:#FFFFFF;" d="M446.855,83.724l-25.206,16.542l74.043,31.508V50.641l-25.206,16.542
	C430.314,9.681,353.908-9.224,292.468,22.284c-7.877,3.938-9.452,13.391-4.726,20.48l0,0c3.938,6.302,11.815,7.877,18.905,4.726
	C354.695,23.859,415.348,38.825,446.855,83.724z"/>
<path style="fill:#183651;" d="M493.329,139.65l-74.043-31.508c-2.363-0.788-4.726-3.938-4.726-6.302
	c0-3.151,0.788-5.514,3.151-7.089l18.117-11.815c-19.692-23.631-48.837-37.809-79.557-37.809c-15.754,0-32.295,3.938-46.474,11.028
	c-10.24,4.726-22.843,1.575-28.357-7.089c-7.089-11.028-3.151-25.994,7.877-31.508c20.48-10.24,43.323-15.754,66.954-15.754
	c45.686,0,89.009,21.268,117.366,57.502l18.905-12.603c2.363-1.575,5.514-1.575,7.877,0s3.938,3.938,3.938,7.089v79.557
	C505.932,137.287,498.843,142.013,493.329,139.65z M438.191,99.478l49.625,21.268V66.395l-12.603,8.665
	c-3.938,2.363-8.665,1.575-11.028-2.363c-24.418-35.446-65.378-56.714-108.702-56.714c-20.48,0-40.96,4.726-59.865,14.178
	c-3.151,1.575-3.938,6.302-2.363,9.452c1.575,2.363,5.514,3.938,8.665,2.363c16.542-8.665,34.658-12.603,53.563-12.603
	c38.597,0,75.618,18.905,97.674,50.412c1.575,1.575,1.575,3.938,1.575,6.302c-0.788,2.363-1.575,3.938-3.151,4.726L438.191,99.478z"
	/>
<path style="fill:#FFFFFF;" d="M197.945,456.302c-48.837,24.418-108.702,10.24-140.997-35.446l25.206-16.542L8.111,372.807v81.132
	l25.206-16.542c40.172,57.502,116.578,76.406,178.018,44.898c7.089-3.938,9.452-13.391,4.726-20.48
	C212.911,454.727,205.034,452.364,197.945,456.302z"/>
<path style="fill:#183651;" d="M148.32,504.352L148.32,504.352c-45.686,0-89.009-21.268-117.366-57.502l-18.905,12.603
	c-2.363,1.575-5.514,1.575-7.877,0c-2.363-1.575-3.938-3.938-3.938-7.089v-81.132c0-2.363,1.575-4.726,3.151-6.302
	s4.726-1.575,7.089-0.788l74.043,31.508c2.363,0.788,4.726,3.938,4.726,6.302c0,3.151-0.788,5.514-3.151,7.089l-18.117,11.815
	c19.692,23.631,48.837,37.809,79.557,37.809c15.754,0,32.295-3.938,46.474-11.028c10.24-4.726,22.843-1.575,28.357,7.089
	c7.089,11.028,3.151,25.994-7.877,31.508C194.794,498.838,171.951,504.352,148.32,504.352z M33.317,428.733
	c2.363,0,4.726,1.575,6.302,3.151c24.418,35.446,65.378,56.714,108.702,56.714c20.48,0,40.96-4.726,59.865-14.178
	c3.151-1.575,3.938-6.302,2.363-9.452c-1.575-2.363-5.514-3.938-8.665-2.363c-16.542,8.665-34.658,12.603-53.563,12.603l0,0
	c-38.597,0-75.618-18.905-97.674-50.412c-1.575-1.575-1.575-3.938-1.575-6.302c0.788-1.575,2.363-3.151,3.938-4.726l12.603-8.665
	l-49.625-21.268v54.351l13.391-8.665C30.166,428.733,31.742,428.733,33.317,428.733z"/>
<path style="fill:#FFFFFF;" d="M461.034,287.736L461.034,287.736c-6.302,3.938-7.877,11.815-4.726,18.905
	c24.418,48.837,10.24,108.702-35.446,140.997l-16.542-25.206l-31.508,74.043h81.132l-16.542-25.206
	c57.502-40.172,76.406-116.578,44.898-178.018C477.575,285.373,467.335,283.01,461.034,287.736z"/>
<path style="fill:#183651;" d="M372.025,504.352c-2.363,0-4.726-1.575-6.302-3.151c-1.575-2.363-1.575-4.726-0.788-7.089
	l31.508-74.043c0.788-2.363,3.938-4.726,6.302-4.726c3.151,0,5.514,0.788,7.089,3.151l11.815,18.117
	c37.022-29.932,48.049-82.708,26.782-126.031c-5.514-10.24-1.575-22.843,7.089-29.145c11.028-7.089,25.994-3.938,31.508,7.877
	c32.295,63.015,14.178,140.997-40.96,183.532l12.603,18.905c1.575,2.363,1.575,5.514,0,7.877c-1.575,2.363-3.938,3.938-7.089,3.938
	L372.025,504.352z M405.108,438.973l-21.268,49.625h54.351l-8.665-13.391c-2.363-3.938-1.575-8.665,2.363-11.028
	c54.351-37.809,72.468-109.489,42.535-168.566c-1.575-3.151-6.302-3.938-9.452-2.363s-3.938,5.514-2.363,8.665
	c26.782,51.988,10.24,117.366-37.809,151.237c-1.575,1.575-3.938,1.575-6.302,1.575c-2.363-0.788-3.938-1.575-4.726-3.151
	L405.108,438.973z"/>
<path style="fill:#FFFFFF;" d="M43.557,216.844c6.302-3.938,7.877-11.815,4.726-18.905C23.865,149.102,38.043,89.238,83.729,56.942
	l16.542,25.206l31.508-74.043l-80.345,0l16.542,25.206C10.474,73.484-8.431,149.89,23.077,212.118
	C27.015,219.207,36.468,221.57,43.557,216.844z"/>
<path style="fill:#183651;" d="M35.68,227.084L35.68,227.084c-8.665,0-15.754-4.726-19.692-11.815
	C-16.308,152.253,1.809,74.272,56.948,31.736L45.132,12.832c-1.575-3.151-2.363-5.514-0.788-8.665
	c1.575-2.363,3.938-3.938,7.089-3.938h81.132c2.363,0,4.726,1.575,6.302,3.151c1.575,2.363,1.575,4.726,0.788,7.089l-31.508,74.043
	c-0.788,2.363-3.938,4.726-6.302,4.726c-3.151,0-5.514-0.788-7.089-3.151L82.942,67.97C45.92,97.902,34.892,150.678,56.16,194.001
	c5.514,10.24,1.575,22.843-7.089,29.145C44.345,226.296,40.406,227.084,35.68,227.084z M66.4,15.982l8.665,13.391
	c2.363,3.938,1.575,8.665-2.363,11.028C18.351,78.21,0.234,149.89,30.166,208.967c1.575,3.151,6.302,3.938,9.452,2.363
	c3.151-1.575,3.938-5.514,2.363-8.665C15.2,150.678,31.742,85.299,79.791,51.429c1.575-1.575,3.938-1.575,6.302-1.575
	c1.575,0,3.151,1.575,4.726,3.151l7.877,12.603l21.268-49.625H66.4z"/>
<circle style="fill:#CFD0D1;" cx="252.295" cy="174.309" r="60.652"/>
<path style="fill:#2AA0DA;" d="M402.745,336.573c-29.145,52.775-85.858,88.222-150.449,88.222s-121.305-35.446-150.449-88.222
	c18.905-42.535,54.351-74.831,98.462-89.797l51.988,80.345l52.775-80.345C348.394,260.955,384.628,294.038,402.745,336.573z"/>
<g>
	<path id="SVGCleanerId_0_2_" style="fill:#183651;" d="M252.295,432.672c-99.249,0-180.382-81.132-180.382-180.382
		S153.046,71.909,252.295,71.909s180.382,81.132,180.382,180.382S351.545,432.672,252.295,432.672z M252.295,87.662
		c-90.585,0-164.628,74.043-164.628,164.628s74.043,164.628,164.628,164.628s164.628-74.043,164.628-164.628
		S342.88,87.662,252.295,87.662z"/>
</g>
<g>
	
		<rect x="55.345" y="342.808" transform="matrix(-0.8853 0.465 -0.465 -0.8853 282.6295 633.2357)" style="fill:#183651;" width="15.754" height="17.329"/>
	
		<rect x="433.496" y="144.329" transform="matrix(-0.8853 0.465 -0.465 -0.8853 903.2662 83.1994)" style="fill:#183651;" width="15.754" height="17.329"/>
	
		<rect x="342.867" y="433.476" transform="matrix(-0.8854 0.4649 -0.4649 -0.8854 867.9465 668.6921)" style="fill:#183651;" width="17.33" height="15.754"/>
	
		<rect x="144.398" y="55.291" transform="matrix(-0.8854 0.4649 -0.4649 -0.8854 317.9462 47.939)" style="fill:#183651;" width="17.33" height="15.754"/>
	
		<rect x="40.384" y="307.466" transform="matrix(-0.9542 0.2992 -0.2992 -0.9542 188.8975 603.3408)" style="fill:#183651;" width="15.754" height="17.329"/>
	
		<rect x="448.434" y="179.752" transform="matrix(-0.9542 0.2991 -0.2991 -0.9542 948.0871 231.7219)" style="fill:#183651;" width="15.754" height="17.329"/>
	
		<rect x="307.459" y="448.409" transform="matrix(-0.9542 0.299 -0.299 -0.9542 754.2194 797.17)" style="fill:#183651;" width="17.328" height="15.753"/>
	
		<rect x="179.771" y="40.352" transform="matrix(-0.9542 0.2993 -0.2993 -0.9542 382.6692 37.8505)" style="fill:#183651;" width="17.33" height="15.754"/>
	
		<rect x="32.579" y="273.583" transform="matrix(-0.9904 0.1381 -0.1381 -0.9904 119.5026 556.2031)" style="fill:#183651;" width="15.754" height="17.329"/>
	
		<rect x="455.596" y="214.531" transform="matrix(-0.9904 0.1384 -0.1384 -0.9904 953.3754 380.1008)" style="fill:#183651;" width="15.754" height="17.33"/>
	
		<rect x="273.607" y="456.232" transform="matrix(-0.9904 0.1382 -0.1382 -0.9904 625.9753 884.7549)" style="fill:#183651;" width="17.329" height="15.754"/>
	
		<rect x="214.435" y="32.493" transform="matrix(-0.9904 0.1382 -0.1382 -0.9904 449.6367 49.5201)" style="fill:#183651;" width="17.329" height="15.754"/>
</g>
<g>
</g>
<g>
</g>
<g>
</g>
<g>
</g>
<g>
</g>
<g>
</g>
<g>
</g>
<g>
</g>
<g>
</g>
<g>
</g>
<g>
</g>
<g>
</g>
<g>
</g>
<g>
</g>
<g>
</g>
</svg>
