<svg height="512pt" viewBox="0 0 512 512" width="512pt" xmlns="http://www.w3.org/2000/svg"><path d="m481.84375 269.613281c-1.03125-1.316406-25.679688-32.617187-65.796875-64.355469-53.515625-42.332031-109.003906-64.707031-160.472656-64.707031s-106.957031 22.375-160.472657 64.707031c-40.117187 31.738282-64.769531 63.039063-65.796874 64.355469-2.121094 2.714844-2.121094 6.523438 0 9.238281 1.027343 1.316407 25.679687 32.617188 65.796874 64.355469 53.515626 42.332031 109.003907 64.707031 160.472657 64.707031 51.464843 0 106.957031-22.375 160.472656-64.707031 40.117187-31.738281 64.765625-63.039062 65.796875-64.355469 2.121094-2.714843 2.121094-6.523437 0-9.238281zm0 0" fill="#ddd"/><path d="m466.863281 252.335938c-11.347656 12.277343-28.734375 29.601562-50.816406 47.074218-53.515625 42.335938-109.003906 64.710938-160.472656 64.710938s-106.957031-22.375-160.472657-64.710938c-22.085937-17.46875-39.46875-34.796875-50.816406-47.074218-9.269531 10.023437-14.515625 16.6875-14.980468 17.277343-2.121094 2.714844-2.121094 6.523438 0 9.238281 1.027343 1.316407 25.679687 32.617188 65.796874 64.355469 53.515626 42.332031 109.003907 64.707031 160.472657 64.707031 51.464843 0 106.957031-22.375 160.472656-64.707031 40.117187-31.738281 64.765625-63.039062 65.796875-64.355469 2.121094-2.714843 2.121094-6.523437 0-9.238281-.464844-.589843-5.710938-7.253906-14.980469-17.277343zm0 0" fill="#c4c4c4"/><path d="m252.027344 140.550781c-73.710938 0-133.683594 59.96875-133.683594 133.679688 0 73.714843 59.972656 133.683593 133.683594 133.683593 73.714844 0 133.683594-59.96875 133.683594-133.683593 0-73.710938-59.96875-133.679688-133.683594-133.679688zm0 0" fill="#80e7ff"/><path d="m313.199219 248.183594c-.964844-2.261719-2.980469-3.910156-5.394531-4.402344-2.414063-.492188-4.910157.226562-6.691407 1.929688-3.246093 3.109374-7.5 4.824218-11.988281 4.824218-9.5625 0-17.339844-7.78125-17.339844-17.34375 0-3.902344 1.269532-7.589844 3.675782-10.664062 1.519531-1.941406 1.988281-4.503906 1.25-6.855469-.734376-2.355469-2.578126-4.195313-4.929688-4.925781-6.375-1.984375-13.019531-2.988282-19.753906-2.988282-36.652344 0-66.472656 29.820313-66.472656 66.476563 0 36.652344 29.820312 66.472656 66.472656 66.472656 36.65625 0 66.476562-29.820312 66.476562-66.472656 0-9.03125-1.785156-17.792969-5.304687-26.050781zm0 0" fill="#3e5359"/><path d="m252.027344 298.367188c-29.253906 0-54.132813-19-62.996094-45.304688-2.246094 6.65625-3.476562 13.769531-3.476562 21.167969 0 36.65625 29.820312 66.476562 66.472656 66.476562 36.65625 0 66.476562-29.820312 66.476562-66.476562 0-7.277344-1.179687-14.375-3.472656-21.179688-8.859375 26.308594-33.746094 45.316407-63.003906 45.316407zm0 0" fill="#334549"/><g fill="#3e5359"><path d="m34.144531 226.753906c-1.964843 0-3.925781-.765625-5.394531-2.289062-2.878906-2.980469-2.796875-7.726563.183594-10.605469 30.265625-29.230469 61.929687-53.269531 94.117187-71.441406 45.046875-25.4375 89.632813-38.332031 132.519531-38.332031 42.851563 0 87.402344 12.871093 132.410157 38.265624 32.171875 18.152344 63.828125 42.164063 94.09375 71.375 2.980469 2.875 3.0625 7.625.1875 10.601563-2.875 2.980469-7.625 3.066406-10.601563.1875-28.9375-27.925781-60.421875-51.824219-91.050781-69.101563-42.730469-24.109374-84.800781-36.332031-125.039063-36.332031-40.269531 0-82.378906 12.246094-125.148437 36.394531-30.640625 17.300782-62.132813 41.21875-91.070313 69.171876-1.457031 1.40625-3.332031 2.105468-5.207031 2.105468zm0 0"/><path d="m7.5 142.433594c-4.140625 0-7.5-3.359375-7.5-7.5v-127.433594c0-4.140625 3.359375-7.5 7.5-7.5h127.433594c4.140625 0 7.5 3.359375 7.5 7.5s-3.359375 7.496094-7.5 7.496094h-119.9375v119.9375c0 4.140625-3.355469 7.5-7.496094 7.5zm0 0"/><path d="m134.933594 512h-127.433594c-4.140625 0-7.5-3.359375-7.5-7.5v-127.433594c0-4.140625 3.359375-7.5 7.5-7.5s7.496094 3.359375 7.496094 7.5v119.9375h119.9375c4.140625 0 7.5 3.355469 7.5 7.496094s-3.359375 7.5-7.5 7.5zm0 0"/><path d="m503.507812 512h-127.433593c-4.140625 0-7.5-3.359375-7.5-7.5s3.359375-7.496094 7.5-7.496094h119.9375v-119.9375c0-4.140625 3.355469-7.5 7.496093-7.5 4.144532 0 7.5 3.359375 7.5 7.5v127.433594c0 4.140625-3.355468 7.5-7.5 7.5zm0 0"/><path d="m503.507812 142.433594c-4.140624 0-7.496093-3.359375-7.496093-7.5v-119.9375h-119.9375c-4.140625 0-7.5-3.355469-7.5-7.496094s3.359375-7.5 7.5-7.5h127.433593c4.144532 0 7.5 3.359375 7.5 7.5v127.433594c0 4.140625-3.355468 7.5-7.5 7.5zm0 0"/></g><path d="m255.574219 364.121094c-41.207031 0-84.992188-14.359375-128.28125-41.804688 19.351562 50.023438 67.964843 85.597656 124.734375 85.597656 54.546875 0 101.5625-32.839843 122.324218-79.789062-40.171874 23.660156-80.582031 35.996094-118.777343 35.996094zm0 0" fill="#47dbf4"/></svg>