<?xml version="1.0" encoding="iso-8859-1"?>
<!-- Generator: Adobe Illustrator 19.0.0, SVG Export Plug-In . SVG Version: 6.00 Build 0)  -->
<svg xmlns="http://www.w3.org/2000/svg" xmlns:xlink="http://www.w3.org/1999/xlink" version="1.1" id="Capa_1" x="0px" y="0px" viewBox="0 0 512 512" style="enable-background:new 0 0 512 512;" xml:space="preserve" width="512" height="512">
<g>
	<path style="fill:#78BAF6;" d="M403.456,114.496H108.544c-23.225,0-42.052,18.827-42.052,42.052v313.4   c0,23.225,18.827,42.052,42.052,42.052h294.913c23.225,0,42.052-18.827,42.052-42.052v-313.4   C445.508,133.324,426.681,114.496,403.456,114.496z"/>
	<path style="fill:#1885DA;" d="M403.456,114.496h-26.704c23.225,0,42.052,18.827,42.052,42.052v313.399   c0,23.225-18.827,42.052-42.052,42.052h26.704c23.225,0,42.052-18.827,42.052-42.052V156.549   C445.508,133.324,426.681,114.496,403.456,114.496z"/>
	<path style="fill:#D8E6F0;" d="M445.508,374.685V42.052C445.508,18.827,426.681,0,403.456,0H108.544   C85.319,0,66.492,18.827,66.492,42.052v332.633H445.508z"/>
	<path style="fill:#AAC0D1;" d="M403.456,0h-26.704c23.225,0,42.052,18.827,42.052,42.052v332.633h26.704V42.052   C445.508,18.827,426.681,0,403.456,0z"/>
	<g>
		<path style="fill:#B78358;" d="M370.358,172.955L311.589,71.165c-24.706-42.793-86.472-42.793-111.179,0l-58.769,101.791    c-42.829,74.182,10.707,166.91,96.365,166.91h35.986C359.651,339.865,413.187,247.137,370.358,172.955z M309.278,248.964    c-3.536,6.125-14.055,20.372-35.286,20.372h-35.985c-21.231,0-31.749-14.247-35.286-20.372c-3.537-6.125-10.616-22.357,0-40.744    L256,115.939l53.28,92.282C319.894,226.607,312.815,242.839,309.278,248.964z"/>
		<g>
			<path style="fill:#935D38;" d="M306.412,191.504c-0.002,0.004-0.004,0.007-0.007,0.012     C306.408,191.512,306.41,191.508,306.412,191.504z"/>
			<path style="fill:#935D38;" d="M306.299,191.7c-0.066,0.114-0.157,0.272-0.282,0.488     C306.102,192.041,306.212,191.85,306.299,191.7z"/>
			<path style="fill:#935D38;" d="M306.34,191.629c-0.013,0.022-0.027,0.046-0.041,0.071     C306.314,191.674,306.328,191.649,306.34,191.629z"/>
			<path style="fill:#935D38;" d="M306.34,191.629c0.026-0.045,0.048-0.083,0.065-0.113c-0.015,0.025-0.028,0.048-0.042,0.072     C306.356,191.601,306.349,191.614,306.34,191.629z"/>
			<path style="fill:#935D38;" d="M299.695,260.313c-5.809,4.821-14.173,9.023-25.703,9.023h-35.985     c-21.231,0-31.749-14.247-35.285-20.372c-3.537-6.125-10.616-22.357,0-40.744L256,115.939l47.14,81.648     c0.85-1.738,1.761-3.466,2.75-5.18c0.004-0.007,0.019-0.034,0.05-0.087c-0.015,0.027-0.028,0.048-0.037,0.064     c0.024-0.041,0.044-0.077,0.066-0.115c-0.004,0.007-0.008,0.014-0.012,0.021c0.016-0.028,0.035-0.06,0.057-0.098     c0.001-0.001,0.002-0.003,0.002-0.004l0,0c0.075-0.129,0.188-0.325,0.347-0.6c0.021-0.037,0.039-0.068,0.051-0.088     c0.002-0.003,0.003-0.005,0.005-0.009c0.016-0.028,0.022-0.039,0.019-0.034c1.754-3.039,8.473-14.681,30.7-53.193     c2.496-3.67,4.607-7.702,6.262-12l-31.812-55.1c-7.553-13.082-18.576-22.143-30.938-27.227     c-19.525,1.971-38.211,13.081-48.276,32.905l-53.845,93.262c-40.49,70.126,10.113,157.812,91.113,157.812     c16.702-1.306,37.497,2.607,61.107-3.433c6.958-4.135,13.374-9.002,19.182-14.463     C325.949,301.901,307.869,283.027,299.695,260.313z M305.897,192.397c-0.003,0.005-0.005,0.008-0.006,0.011l0.001-0.001     C305.893,192.403,305.895,192.4,305.897,192.397z"/>
			<path style="fill:#935D38;" d="M305.958,192.29c-0.006,0.01-0.013,0.022-0.018,0.031     C305.946,192.311,305.952,192.301,305.958,192.29z"/>
			<path style="fill:#935D38;" d="M306.415,191.5c-0.001,0.002-0.002,0.003-0.003,0.004c0.015-0.025,0.025-0.042,0.027-0.047     c-0.007,0.012-0.013,0.022-0.019,0.034C306.418,191.494,306.416,191.497,306.415,191.5z"/>
		</g>
		<path style="fill:#D1996F;" d="M276.355,196.544c3.595-6.229-12.602,21.834,33.051-57.266    c6.791-9.987,10.932-22.484,10.932-35.872c0-16.658-6.293-27.31-7.034-29.289c-24.352-47.597-91.394-45.727-114.708,0.196    l-56.952,98.643c-42.827,74.173,10.697,166.919,96.37,166.919c24.374-1.906,56.984,6.715,94.293-16.339    C277.315,311.722,246.479,248.304,276.355,196.544z"/>
		<g>
			<path style="fill:#935D38;" d="M233.539,333.367c-25.608-17.572-43.103-45.309-47.996-76.099c-0.65-4.091-4.499-6.877-8.584-6.23     c-4.091,0.65-6.88,4.494-6.23,8.584c4.815,30.293,20.419,57.974,43.467,77.758c7.224,1.543,14.77,2.392,22.587,2.474     C236.881,337.364,235.745,334.88,233.539,333.367z"/>
			<path style="fill:#935D38;" d="M282.672,333.229c-18.428-10.389-33.656-26.808-42.882-46.232     c-9.456-19.91-12.368-41.686-8.42-62.976c0.755-4.073-1.935-7.986-6.007-8.742c-4.072-0.751-7.986,1.936-8.742,6.007     c-4.527,24.416-1.201,49.363,9.62,72.145c8.958,18.86,22.329,34.73,39.009,46.485c6.72,0.092,13.802-0.006,21.211-0.791     C286.255,336.739,284.915,334.493,282.672,333.229z"/>
			<path style="fill:#935D38;" d="M197.393,141.209c1.182,0.682,2.471,1.006,3.744,1.006c2.592,0,5.113-1.345,6.502-3.751     l34.878-60.406c0.068-0.118,0.132-0.237,0.193-0.357c7.016-13.831,19.458-24.291,34.138-28.698     c2.383-0.715,4.139-2.513,4.909-4.693c-6.647-2.84-13.699-4.5-20.824-4.999c-13.401,6.809-24.55,17.805-31.505,31.418     l-34.78,60.235C192.577,134.551,193.806,139.138,197.393,141.209z"/>
		</g>
	</g>
	<path style="fill:#FEE9A1;" d="M107.365,453.663v14.386c0,3.044,2.468,5.513,5.513,5.513h188.143c3.044,0,5.513-2.468,5.513-5.513   v-14.386c0-3.044-2.468-5.513-5.513-5.513H112.878C109.833,448.15,107.365,450.618,107.365,453.663z"/>
	<path style="fill:#202D4C;" d="M242.607,420.624H114.865c-4.142,0-7.5-3.358-7.5-7.5s3.358-7.5,7.5-7.5h127.742   c4.142,0,7.5,3.358,7.5,7.5S246.75,420.624,242.607,420.624z"/>
</g>















</svg>
