<?xml version="1.0" encoding="iso-8859-1"?>
<!-- Generator: Adobe Illustrator 19.0.0, SVG Export Plug-In . SVG Version: 6.00 Build 0)  -->
<svg version="1.1" id="Layer_1" xmlns="http://www.w3.org/2000/svg" xmlns:xlink="http://www.w3.org/1999/xlink" x="0px" y="0px"
	 viewBox="0 0 512.001 512.001" style="enable-background:new 0 0 512.001 512.001;" xml:space="preserve">
<path style="fill:#735643;" d="M488.186,178.135c0-16.49-8.261-31.043-20.864-39.769l-86.924-9.059v98.696
	c-0.509,26.316-21.985,47.496-48.423,47.496c-26.757,0-48.447-21.69-48.447-48.447h-55.054c0,26.757-21.69,48.447-48.447,48.447
	c-26.439,0-47.917-21.183-48.423-47.5v-98.693l-86.924,9.059c-12.603,8.726-20.863,23.28-20.864,39.769
	c0,16.49,8.261,31.043,20.864,39.769c-9.29,12.193-12.649,28.587-7.553,44.27s17.45,26.971,32.133,31.375
	c-5.067,14.467-3.196,31.097,6.496,44.437c9.693,13.341,24.929,20.259,40.255,19.911c-0.348,15.325,6.57,30.563,19.911,40.254
	c13.341,9.692,29.97,11.564,44.437,6.496c4.404,14.683,15.693,27.036,31.375,32.132c15.683,5.096,32.077,1.735,44.27-7.553
	c12.193,9.29,28.587,12.649,44.27,7.553c15.683-5.096,26.971-17.45,31.375-32.132c14.467,5.067,31.097,3.195,44.437-6.496
	c13.34-9.692,20.259-24.929,19.911-40.254c15.325,0.348,30.563-6.57,40.255-19.911c9.692-13.34,11.564-29.97,6.496-44.437
	c14.683-4.404,27.037-15.693,32.133-31.375c5.095-15.683,1.735-32.077-7.553-44.27C479.926,209.178,488.186,194.625,488.186,178.135
	z"/>
<path style="fill:#4D3A2D;" d="M256,102.333c-92.978-85.955-143.323,49.404-247.742-7.115
	c12.633,65.533,158.625,163.93,247.742,46.6c89.113,117.331,235.106,18.933,247.742-46.6
	C399.323,151.736,348.978,16.376,256,102.333z"/>
<path d="M496.444,178.135c0-0.323-0.009-0.642-0.021-0.962l-0.009-0.301c-0.102-4.56-3.915-8.181-8.441-8.071
	c-4.56,0.102-8.173,3.88-8.071,8.441l0.014,0.493c0.004,0.133,0.011,0.266,0.011,0.4c0,13.147-6.469,25.477-17.307,32.979
	c-1.854,1.284-3.103,3.27-3.455,5.497c-0.352,2.227,0.221,4.503,1.588,6.297c7.987,10.484,10.33,24.209,6.268,36.714
	c-4.063,12.504-14.025,22.23-26.651,26.017c-2.16,0.647-3.962,2.15-4.986,4.16c-1.024,2.009-1.181,4.35-0.436,6.479
	c4.357,12.441,2.344,26.219-5.383,36.855c-7.728,10.635-20.194,16.774-33.387,16.507c-2.248-0.02-4.432,0.823-6.027,2.416
	c-1.594,1.594-2.467,3.772-2.417,6.027c0.298,13.18-5.872,25.661-16.508,33.387c-10.636,7.726-24.413,9.738-36.854,5.384
	c-2.128-0.747-4.468-0.589-6.479,0.436c-2.009,1.024-3.512,2.824-4.161,4.985c-3.788,12.626-13.513,22.589-26.017,26.652
	c-12.504,4.062-26.228,1.72-36.714-6.268c-2.956-2.252-7.052-2.252-10.009,0c-10.486,7.987-24.21,10.33-36.713,6.268
	c-12.504-4.063-22.23-14.026-26.017-26.652c-0.647-2.16-2.151-3.962-4.161-4.985c-2.009-1.024-4.35-1.181-6.479-0.436
	c-12.44,4.355-26.218,2.344-36.854-5.384c-10.636-7.727-16.807-20.208-16.508-33.387c0.051-2.255-0.823-4.432-2.417-6.027
	c-1.595-1.595-3.81-2.448-6.027-2.416c-13.162,0.286-25.658-5.871-33.386-16.507s-9.74-24.414-5.383-36.855
	c0.745-2.128,0.588-4.469-0.436-6.479c-1.024-2.008-2.825-3.512-4.986-4.16C59,281.853,49.036,272.126,44.973,259.622
	c-4.062-12.504-1.72-26.229,6.268-36.714c1.366-1.794,1.94-4.068,1.588-6.296c-0.352-2.227-1.601-4.214-3.455-5.498
	c-10.837-7.503-17.307-19.833-17.307-32.979c0-0.153,0.007-0.305,0.012-0.457l0.015-0.481c0.11-4.56-3.497-8.344-8.057-8.455
	c-4.569-0.075-8.345,3.498-8.455,8.057l-0.01,0.315c-0.011,0.339-0.022,0.678-0.022,1.021c0,15.858,6.66,30.87,18.134,41.509
	c-7.623,13.663-9.319,29.999-4.419,45.08c4.901,15.083,15.874,27.301,30.074,33.875c-3.028,15.351,0.406,31.411,9.728,44.241
	c9.322,12.83,23.534,21.059,39.068,22.922c1.864,15.536,10.094,29.75,22.923,39.068c12.829,9.322,28.887,12.753,44.24,9.729
	c6.573,14.199,18.792,25.172,33.873,30.074c15.729,5.111,32.819,3.047,46.822-5.432c8.919,5.4,19.087,8.198,29.361,8.196
	c5.857,0,11.751-0.909,17.461-2.766c15.081-4.901,27.3-15.874,33.874-30.074c15.351,3.03,31.411-0.407,44.24-9.729
	c12.83-9.319,21.059-23.532,22.923-39.068c15.534-1.864,29.748-10.094,39.069-22.922c9.321-12.829,12.755-28.889,9.727-44.241
	c14.199-6.573,25.173-18.791,30.074-33.875c4.901-15.081,3.205-31.417-4.419-45.08C489.784,209.005,496.444,193.994,496.444,178.135
	z"/>
<path d="M180.026,283.759c28.464,0,52.096-21.079,56.106-48.447h39.737c4.009,27.368,27.641,48.447,56.106,48.447
	c14.953,0,29.06-5.77,39.723-16.247c10.646-10.46,16.669-24.434,16.957-39.348c0.088-4.561-3.537-8.327-8.097-8.417
	c-4.567-0.1-8.327,3.539-8.417,8.097c-0.42,21.723-18.439,39.398-40.166,39.398c-22.16,0-40.189-18.029-40.189-40.189
	c0-4.562-3.697-8.258-8.258-8.258h-55.054c-4.561,0-8.258,3.696-8.258,8.258c0,22.16-18.029,40.189-40.189,40.189
	c-21.73,0-39.749-17.676-40.167-39.401c-0.088-4.56-3.814-8.178-8.416-8.097c-4.56,0.088-8.185,3.856-8.097,8.417
	c0.287,14.914,6.308,28.889,16.955,39.35C150.966,277.987,165.073,283.759,180.026,283.759z"/>
<path d="M508.624,88.556c-2.573-1.886-6.005-2.123-8.813-0.602c-45.867,24.828-79.408,10.25-114.917-5.184
	c-38.67-16.807-78.61-34.163-128.894,8.526c-50.284-42.688-90.224-25.331-128.894-8.526c-35.509,15.434-69.048,30.012-114.917,5.185
	c-2.808-1.521-6.239-1.285-8.813,0.602s-3.831,5.089-3.226,8.224c3.853,19.985,18.671,42.633,40.655,62.135
	c22.972,20.378,51.201,35.241,79.49,41.852c11.323,2.646,22.434,3.954,33.266,3.953c39.104-0.001,74.494-17.053,102.44-49.743
	c27.946,32.694,63.328,49.747,102.437,49.743c10.826,0,21.944-1.308,33.261-3.952c28.289-6.61,56.52-21.473,79.493-41.851
	c21.985-19.502,36.806-42.15,40.659-62.137C512.455,93.646,511.199,90.443,508.624,88.556z M387.94,184.684
	c-34.486,8.054-84.231,6.296-125.363-47.863c-1.561-2.056-3.995-3.264-6.577-3.264s-5.014,1.208-6.577,3.264
	c-41.136,54.16-90.882,55.918-125.371,47.862c-46.364-10.836-85.884-44.187-101.399-73.882
	c44.176,16.176,79.462,0.84,111.037-12.884c38.459-16.717,71.672-31.152,116.704,10.478c3.164,2.927,8.048,2.927,11.212,0
	c45.031-41.627,78.246-27.193,116.704-10.478c31.574,13.724,66.859,29.062,111.036,12.883
	C473.828,140.497,434.305,173.851,387.94,184.684z"/>
<g>
</g>
<g>
</g>
<g>
</g>
<g>
</g>
<g>
</g>
<g>
</g>
<g>
</g>
<g>
</g>
<g>
</g>
<g>
</g>
<g>
</g>
<g>
</g>
<g>
</g>
<g>
</g>
<g>
</g>
</svg>
