<svg height="512pt" viewBox="-4 0 512 512.10385" width="512pt" xmlns="http://www.w3.org/2000/svg"><path d="m277.777344 61.714844c-3.96875-.007813-7.429688-2.710938-8.398438-6.5625-3.679687-14.699219-3.59375-44.855469 23.03125-53.722656 8.644532-2.578126 17.953125-1.644532 25.914063 2.601562 8.65625 5.132812 15.074219 13.320312 17.988281 22.953125h36.925781c4.792969 0 8.675781 3.886719 8.675781 8.679687 0 4.792969-3.882812 8.675782-8.675781 8.675782h-43.390625c-3.980468 0-7.449218-2.707032-8.417968-6.570313-1.109376-7.417969-5.179688-14.066406-11.28125-18.429687-3.820313-1.992188-8.242188-2.496094-12.410157-1.414063-17.929687 5.976563-11.835937 31.941407-11.566406 33.042969.632813 2.585938.046875 5.3125-1.589844 7.410156-1.636719 2.09375-4.144531 3.324219-6.804687 3.335938zm0 0" fill="#d1d4d1"/><path d="m295.136719 44.367188h-78.101563c-4.792968 0-8.679687-3.886719-8.679687-8.679688s3.886719-8.675781 8.679687-8.675781h78.101563c4.792969 0 8.675781 3.882812 8.675781 8.675781s-3.882812 8.679688-8.675781 8.679688zm0 0" fill="#a5a5a4"/><path d="m503.40625 209.238281c-.007812 70.0625-35.261719 135.421875-93.808594 173.90625h-.085937c-3.90625 2.605469-7.8125 5.035157-11.804688 7.289063h-.085937l-53.367188 21.175781c-3.472656.867187-7.03125 1.648437-10.589844 2.34375-11.335937 2.125-22.832031 3.285156-34.363281 3.46875-1.390625.089844-2.777343.089844-4.164062.089844-115.015625-.03125-208.242188-93.257813-208.273438-208.273438 0-4.078125.085938-8.070312.347657-11.972656.347656-6.597656 1.042968-13.191406 1.996093-19.613281l16.488281-55.019532c.347657-.695312.605469-1.300781.953126-1.996093 22.398437-47.410157 61.796874-84.675781 110.386718-104.394531v38.007812c-32.824218 16.628906-59.554687 43.207031-76.367187 75.933594-.609375 1.214844-1.214844 2.429687-1.734375 3.644531-1.824219 3.558594-3.472656 7.289063-4.949219 11.019531-2.511719 6.136719-4.628906 12.425782-6.335937 18.832032-4.058594 14.84375-6.105469 30.167968-6.074219 45.558593.097656 95.816407 77.746093 173.464844 173.5625 173.558594 1.734375 0 3.46875 0 5.117187-.085937 20.480469-.566407 40.695313-4.769532 59.707032-12.410157v-.085937c3.554687-1.386719 7.113281-2.949219 10.585937-4.597656l43.648437-30.199219c3.472657-3.296875 6.855469-6.769531 10.066407-10.414063 36.117187-40.179687 51.4375-94.902344 41.433593-147.992187-10.007812-53.09375-44.195312-98.484375-92.457031-122.761719v-38.007812c2.949219 1.214843 5.8125 2.429687 8.675781 3.730468 74.035157 33.890625 121.507813 107.84375 121.492188 189.265625zm0 0" fill="#f3d55b"/><path d="m503.40625 209.238281c-.007812 70.0625-35.261719 135.421875-93.808594 173.90625h-.085937c-3.90625 2.605469-7.8125 5.035157-11.804688 7.289063h-.085937l-53.367188 21.175781c-3.472656.867187-7.03125 1.648437-10.589844 2.34375-11.335937 2.125-22.832031 3.285156-34.363281 3.46875-113.226562-2.453125-203.738281-94.929687-203.757812-208.183594 0-4.078125.085937-8.070312.347656-11.972656.34375-6.597656 1.039063-13.191406 1.996094-19.613281l16.484375-55.019532c.347656-.695312.609375-1.300781.957031-1.996093 21.019531-44.460938 57.027344-80.101563 101.707031-100.664063v34.277344c-32.824218 16.628906-59.554687 43.207031-76.367187 75.933594-.609375 1.214844-1.214844 2.429687-1.734375 3.644531-1.824219 3.558594-3.472656 7.289063-4.949219 11.019531-2.511719 6.136719-4.628906 12.425782-6.335937 18.832032-4.058594 14.84375-6.105469 30.167968-6.074219 45.558593.097656 95.816407 77.746093 173.464844 173.5625 173.558594 1.734375 0 3.46875 0 5.117187-.085937 1.214844.085937 2.34375.085937 3.558594.085937 22.210938.03125 44.21875-4.210937 64.824219-12.496094v-.085937c3.558593-1.386719 7.117187-2.949219 10.585937-4.597656l43.652344-30.199219c3.472656-3.296875 6.855469-6.769531 10.066406-10.414063 36.117188-40.179687 51.4375-94.902344 41.429688-147.992187-10.003906-53.09375-44.191406-98.484375-92.457032-122.761719v-34.277344c74.035157 33.890625 121.507813 107.84375 121.492188 189.265625zm0 0" fill="#f0c419"/><path d="m138.933594 104.148438v29.679687c-1.824219 3.558594-3.472656 7.289063-4.949219 11.019531-1.300781.609375-2.515625 1.304688-3.730469 1.996094v-36.097656c-8.457031 3.378906-16.660156 7.351562-24.558594 11.886718-6.507812 3.730469-12.84375 7.8125-18.917968 12.148438 6.332031-5.113281 12.96875-9.835938 19.871094-14.144531 10.234374-6.46875 21.042968-11.988281 32.285156-16.488281zm0 0" fill="#f29c1f"/><path d="m138.933594 119.421875v14.40625c-1.824219 3.558594-3.472656 7.289063-4.949219 11.019531-2.511719 6.136719-4.628906 12.425782-6.335937 18.832032-15.074219 9.121093-28.703126 20.4375-40.4375 33.585937.347656-6.597656 1.042968-13.191406 1.996093-19.613281 12.199219-11.582032 26.03125-21.316406 41.046875-28.898438v-25.511718c2.863282-1.390626 5.726563-2.605469 8.679688-3.820313zm0 0" fill="#f29c1f"/><path d="m191 156.21875c-3.972656-.007812-7.433594-2.710938-8.402344-6.5625-3.679687-14.707031-3.589844-44.855469 23.03125-53.734375 8.644532-2.574219 17.957032-1.640625 25.914063 2.605469 8.65625 5.136718 15.070312 13.339844 17.972656 22.976562h36.941406c4.792969 0 8.679688 3.886719 8.679688 8.679688 0 4.792968-3.886719 8.675781-8.679688 8.675781h-43.390625c-3.980468 0-7.449218-2.707031-8.417968-6.566406-1.105469-7.417969-5.179688-14.070313-11.28125-18.433594-3.796876-1.992187-8.199219-2.503906-12.355469-1.441406-17.929688 5.980469-11.835938 31.9375-11.570313 33.039062.644532 2.59375.054688 5.335938-1.59375 7.4375-1.652344 2.101563-4.175781 3.328125-6.847656 3.324219zm0 0" fill="#d1d4d1"/><path d="m208.355469 138.859375h-78.101563c-4.792968 0-8.679687-3.882813-8.679687-8.675781 0-4.792969 3.886719-8.679688 8.679687-8.679688h78.101563c4.792969 0 8.679687 3.886719 8.679687 8.679688 0 4.792968-3.886718 8.675781-8.679687 8.675781zm0 0" fill="#a5a5a4"/><path d="m416.625 303.742188c.039062 104.746093-77.722656 193.222656-181.605469 206.632812-103.886719 13.410156-201.566406-52.421875-228.128906-153.742188-26.5625-101.324218 26.261719-206.609374 123.363281-245.886718v38.007812c-71.792968 36.175782-109.34375 116.921875-90.753906 195.132813 18.59375 78.210937 88.464844 133.421875 168.855469 133.421875s150.261719-55.210938 168.855469-133.421875c18.589843-78.210938-18.960938-158.957031-90.753907-195.132813v-38.007812c78.671875 31.785156 130.171875 108.144531 130.167969 192.996094zm0 0" fill="#f0c419"/><path d="m416.625 303.742188c.039062 104.746093-77.722656 193.222656-181.605469 206.632812-103.886719 13.410156-201.566406-52.421875-228.128906-153.742188-26.5625-101.324218 26.261719-206.609374 123.363281-245.886718v38.007812c-71.792968 36.175782-109.34375 116.921875-90.753906 195.132813 18.59375 78.210937 88.464844 133.421875 168.855469 133.421875s150.261719-55.210938 168.855469-133.421875c18.589843-78.210938-18.960938-158.957031-90.753907-195.132813v-38.007812c78.671875 31.785156 130.171875 108.144531 130.167969 192.996094zm0 0" fill="#f0c419"/><path d="m416.625 303.742188c-.019531 113.316406-90.636719 205.824218-203.929688 208.183593-1.390624.085938-2.863281.085938-4.339843.085938-99.675781.019531-185.386719-70.601563-204.429688-168.445313-19.042969-97.839844 33.921875-195.453125 126.328125-232.820312v38.007812c-71.785156 36.179688-109.335937 116.917969-90.742187 195.128906 18.589843 78.207032 88.457031 133.414063 168.84375 133.417969 1.476562 0 2.863281 0 4.339843-.085937 79.527344-2.019532 147.5-57.851563 164.929688-135.472656 17.433594-77.621094-20.140625-157.15625-91.167969-192.988282v-38.007812c2.949219 1.214844 5.8125 2.429687 8.679688 3.816406 74.042969 33.832031 121.527343 107.769531 121.488281 189.179688zm0 0" fill="#f3d55b"/><path d="m416.625 303.742188c-.019531 113.316406-90.636719 205.824218-203.929688 208.183593-97.0625-1.960937-179.878906-70.761719-199.601562-165.820312-19.722656-95.058594 28.890625-191.128907 117.160156-231.542969v34.191406c-71.785156 36.179688-109.335937 116.917969-90.742187 195.128906 18.589843 78.207032 88.457031 133.414063 168.84375 133.417969 1.476562 0 2.863281 0 4.339843-.085937 1.472657.085937 2.863282.085937 4.339844.085937 80.386719-.003906 150.25-55.210937 168.84375-133.417969 18.589844-78.210937-18.957031-158.949218-90.742187-195.128906v-34.191406c74.042969 33.832031 121.527343 107.769531 121.488281 189.179688zm0 0" fill="#f0c419"/><g fill="#f29c1f"><path d="m370.546875 365.617188c-6.324219 16.601562-15.195313 32.121093-26.292969 45.992187-3.472656.867187-7.03125 1.648437-10.589844 2.34375 10.859376-13.179687 19.71875-27.890625 26.296876-43.652344v-.085937c3.554687-1.386719 7.113281-2.949219 10.585937-4.597656zm0 0"/><path d="m424.261719 325.003906c-2.035157 19.992188-6.972657 39.578125-14.664063 58.140625h-.085937c-3.90625 2.605469-7.8125 5.035157-11.804688 7.289063 8.078125-17.464844 13.628907-35.988282 16.488281-55.015625 3.472657-3.296875 6.855469-6.769531 10.066407-10.414063zm0 0"/></g></svg>