<?xml version="1.0" encoding="utf-8"?>
<!-- Generator: Adobe Illustrator 21.0.0, SVG Export Plug-In . SVG Version: 6.00 Build 0)  -->
<svg xmlns="http://www.w3.org/2000/svg" xmlns:xlink="http://www.w3.org/1999/xlink" version="1.1" id="Layer_1" x="0px" y="0px" viewBox="0 0 256 256" style="enable-background:new 0 0 256 256;" xml:space="preserve" width="512" height="512">
<style type="text/css">
	.st0{fill:#F9E4AF;}
	.st1{fill:#F9828B;}
	.st2{fill:#F9BBC3;}
	.st3{fill:#F9D0B4;}
	.st4{fill:#F9D97D;}
	.st5{fill:#6D6C6B;}
	.st6{fill:#939190;}
	.st7{fill:#F45D64;}
	.st8{fill:#6DCC6D;}
	.st9{fill:#60BAE2;}
	.st10{fill:#FFCD29;}
	.st11{fill:#231F20;}
</style>
<g id="Layer_14">
	<path class="st0" d="M246.2,114h-3.8c-28.6,0-28.6,4-57.2,4c-9.2,0.1-18.4-0.5-27.5-1.8c-5.5-0.8-10.6,3.1-11.4,8.6   c-0.3,1.8,0,3.6,0.7,5.3c1,2.3,2.4,4.5,4,6.4c11.1,12.5,10,31.6-2.4,42.7c-0.6,0.5-1.2,1-1.8,1.5c-5.2,4-11.6,6.2-18.2,6.2   c-1.7,0-3.4-0.1-5-0.4c-16.5-2.7-27.6-18.3-24.9-34.8c0.8-4.8,2.7-9.4,5.7-13.3c2.4-3.2,3.8-7,4-10.9l0-0.1   c0.5-5.6-3.7-10.5-9.2-11c-0.7-0.1-1.4,0-2.2,0c-8.6,1.2-17.3,1.7-26,1.6c-28.6,0-28.6-4-57.2-4H9.8c-4.1,0-7.3,3.3-7.3,7.3l0,0   V245c0,4.7,3.8,8.5,8.5,8.5c0,0,0,0,0,0H245c4.7,0,8.5-3.8,8.5-8.5v0V121.3C253.5,117.3,250.2,114,246.2,114L246.2,114z"/>
	<path class="st1" d="M104.1,138.3c2.4-3.2,3.8-7,4-10.9l0-0.1c0.5-5.6-3.7-10.5-9.2-11c-0.7-0.1-1.4,0-2.2,0   c-8.6,1.2-17.3,1.7-26,1.6c-28.6,0-28.6-4-57.2-4H9.7c-4.1,0-7.3,3.3-7.3,7.3l0,0v26.2c20.9,0,20.9,8,41.8,8s20.9-8,41.8-8   c4.4-0.1,8.7,0.4,13,1.4C100,145.1,101.7,141.5,104.1,138.3z"/>
	<path class="st1" d="M246.1,114h-3.8c-28.6,0-28.6,4-57.2,4c-9.2,0.1-18.4-0.5-27.5-1.8c-5.5-0.8-10.6,3.1-11.4,8.6   c-0.3,1.8,0,3.6,0.7,5.3c1,2.3,2.4,4.5,4,6.4c3.1,3.5,5.4,7.7,6.6,12.3c4-0.9,8.1-1.3,12.2-1.2c20.9,0,20.9,8,41.8,8s20.9-8,41.8-8   v-26.2C253.4,117.3,250.1,114,246.1,114z"/>
	<circle class="st2" cx="85.7" cy="132.4" r="5.2"/>
	<circle class="st2" cx="45.7" cy="139.7" r="5.2"/>
	<circle class="st2" cx="20.4" cy="132.4" r="5.2"/>
	<circle class="st2" cx="169.7" cy="132.4" r="5.2"/>
	<circle class="st2" cx="209.7" cy="139.7" r="5.2"/>
	<circle class="st2" cx="235" cy="132.4" r="5.2"/>
	<path class="st3" d="M9.8,114h3.8c28.6,0,28.6,4,57.2,4c8.7,0.1,17.4-0.4,26-1.6c4.5-0.6,8.8,1.9,10.6,6.1c0.4-1.5,0.7-3,0.8-4.5   l0-0.1c0.5-5.6-3.7-10.5-9.2-11c-0.7-0.1-1.4,0-2.2,0c-8.6,1.2-17.3,1.7-26,1.6c-28.6,0-28.6-4-57.2-4H9.8c-4.1,0-7.3,3.3-7.3,7.3   v9.5C2.5,117.3,5.8,114,9.8,114z"/>
	<path class="st3" d="M246.2,104.5h-3.8c-28.6,0-28.6,4-57.2,4c-9.2,0.1-18.4-0.5-27.5-1.8c-5.5-0.8-10.6,3.1-11.4,8.6   c-0.3,1.8,0,3.6,0.7,5.3c0.1,0.3,0.3,0.6,0.4,0.9c2-3.8,6.1-5.9,10.3-5.3c9.1,1.3,18.3,2,27.5,1.8c28.6,0,28.6-4,57.2-4h3.8   c4.1,0,7.3,3.3,7.3,7.3v0v-9.5C253.5,107.8,250.2,104.5,246.2,104.5C246.2,104.5,246.2,104.5,246.2,104.5z"/>
	<path class="st1" d="M101.7,142.2L101.7,142.2c-0.1,0.1-0.3,0.5-0.4,0.6c-16.5,22.8-1.2,56.6,27.2,56.6c17.4,0,31.8-13.8,33.6-31.5   c1-9.2-1.5-18.5-7.2-25.9l0,0c8,14.7,2.6,33-12,41c-14.7,8-33,2.6-41-12C97,162.1,96.9,151.2,101.7,142.2L101.7,142.2z"/>
	<path class="st4" d="M245,244H11c-4.7,0-8.5-3.8-8.5-8.5c0,0,0,0,0,0v9.5c0,4.7,3.8,8.5,8.5,8.5c0,0,0,0,0,0H245   c4.7,0,8.5-3.8,8.5-8.5v0v-9.5C253.5,240.2,249.7,244,245,244C245,244,245,244,245,244z"/>
	<path class="st5" d="M143.5,143.1c-7.9-8.7-10.4-21-6.4-32.1c3.7-9.4,8.1-18.4,13.3-27.1c16.4-28.5,11.1-57.8,6-73.6   c-0.2-0.6-0.9-0.9-1.5-0.7c-0.5,0.2-0.9,0.7-0.8,1.3c2.5,16.9,3.8,47.4-13.8,69c-15.7,19.3-21.3,35.6-22.2,48.3   c-0.4,5.9-2.5,11.5-6,16.2c-2.2,2.9-3.6,6.4-3.9,10.1c-1.2,11.1,6.9,21.1,18,22.3c11.1,1.2,21.1-6.9,22.3-18   C149.2,153,147.3,147.3,143.5,143.1z"/>
	<ellipse class="st6" cx="128.2" cy="155.7" rx="6.9" ry="11.1"/>
	<path class="st7" d="M131.2,36.5h-1.3v-1.3c0-0.9-0.8-1.7-1.7-1.7c-0.9,0-1.7,0.8-1.7,1.7v1.3h-1.3c-0.9,0-1.7,0.7-1.7,1.7   c0,0.9,0.7,1.7,1.7,1.7c0,0,0.1,0,0.1,0h1.3v1.3c0,0.9,0.8,1.7,1.7,1.7c0.9,0,1.7-0.8,1.7-1.7l0,0v-1.3h1.3c0.9,0,1.7-0.7,1.7-1.7   C133,37.3,132.2,36.5,131.2,36.5C131.3,36.5,131.2,36.5,131.2,36.5z"/>
	<path class="st8" d="M191.5,72h-1.8v-1.8c0-1.4-1.1-2.5-2.5-2.5s-2.5,1.1-2.5,2.5V72h-1.8c-1.4,0-2.5,1.1-2.5,2.5s1.1,2.5,2.5,2.5   h1.8v1.8c0,1.4,1.1,2.5,2.5,2.5s2.5-1.1,2.5-2.5V77h1.8c1.4,0,2.5-1.1,2.5-2.5S192.9,72,191.5,72z"/>
	<path class="st9" d="M139.9,2c0-0.2-0.1-0.3-0.1-0.5c-0.1-0.1-0.1-0.3-0.2-0.4c-0.1-0.1-0.2-0.3-0.3-0.4c-1-0.9-2.5-0.9-3.5,0   c-0.1,0.1-0.2,0.2-0.3,0.4c-0.1,0.1-0.2,0.3-0.2,0.4c-0.1,0.2-0.1,0.3-0.1,0.5c0,0.2-0.1,0.3-0.1,0.5c0,0.2,0,0.3,0.1,0.5   c0,0.2,0.1,0.3,0.1,0.5c0.1,0.2,0.1,0.3,0.2,0.4c0.1,0.1,0.2,0.3,0.3,0.4c1,1,2.5,1,3.5,0c0,0,0,0,0,0c0.1-0.1,0.2-0.2,0.3-0.4   c0.1-0.1,0.2-0.3,0.2-0.4c0.1-0.1,0.1-0.3,0.1-0.5c0-0.2,0-0.3,0.1-0.5C140,2.3,140,2.1,139.9,2z"/>
	<path class="st10" d="M175.6,88.3c0-0.2-0.1-0.3-0.1-0.5c-0.1-0.1-0.1-0.3-0.2-0.4c-0.1-0.1-0.2-0.3-0.3-0.4c-1-0.9-2.5-0.9-3.5,0   c-0.1,0.1-0.2,0.2-0.3,0.4c-0.2,0.3-0.3,0.6-0.4,0.9c-0.1,0.3-0.1,0.7,0,1c0,0.2,0.1,0.3,0.1,0.5c0.1,0.2,0.1,0.3,0.2,0.4   c0.1,0.1,0.2,0.3,0.3,0.4c1,1,2.5,1,3.5,0c0,0,0,0,0,0c0.1-0.1,0.2-0.2,0.3-0.4c0.1-0.1,0.2-0.3,0.2-0.4c0.1-0.1,0.1-0.3,0.1-0.5   C175.7,88.9,175.7,88.6,175.6,88.3z"/>
	<path class="st11" d="M65.5,129.1c0-0.2-0.1-0.3-0.1-0.5c-0.1-0.1-0.1-0.3-0.2-0.4c-0.1-0.1-0.2-0.3-0.3-0.4c-1-0.9-2.5-0.9-3.5,0   c-0.1,0.1-0.2,0.2-0.3,0.4c-0.2,0.3-0.3,0.6-0.4,0.9c-0.1,0.3-0.1,0.7,0,1c0,0.2,0.1,0.3,0.1,0.5c0.1,0.2,0.1,0.3,0.2,0.4   c0.1,0.1,0.2,0.3,0.3,0.4c1,1,2.5,1,3.5,0c0,0,0,0,0,0c0.1-0.1,0.2-0.2,0.3-0.4c0.1-0.1,0.2-0.3,0.2-0.4c0.1-0.1,0.1-0.3,0.1-0.5   C65.6,129.7,65.6,129.4,65.5,129.1z"/>
	<path class="st11" d="M190.1,129.1c0-0.2,0.1-0.3,0.1-0.5c0.1-0.1,0.1-0.3,0.2-0.4c0.1-0.1,0.2-0.3,0.3-0.4c1-0.9,2.5-0.9,3.5,0   c0.1,0.1,0.2,0.2,0.3,0.4c0.2,0.3,0.3,0.6,0.4,0.9c0.1,0.3,0.1,0.7,0,1c0,0.2-0.1,0.3-0.1,0.5c-0.1,0.2-0.1,0.3-0.2,0.4   c-0.1,0.1-0.2,0.3-0.3,0.4c-1,1-2.5,1-3.5,0c0,0,0,0,0,0c-0.1-0.1-0.2-0.2-0.3-0.4c-0.1-0.1-0.2-0.3-0.2-0.4   c-0.1-0.1-0.1-0.3-0.1-0.5C190,129.7,190,129.4,190.1,129.1z"/>
	<path class="st10" d="M110.1,25c-4.1-0.8-7.2-4-8-8c0-0.1-0.1-0.2-0.2-0.2c-0.1,0-0.1,0.1-0.2,0.2c-0.8,4.1-4,7.2-8,8   c-0.1,0-0.2,0.1-0.2,0.2c0,0.1,0.1,0.1,0.2,0.2c4.1,0.8,7.2,4,8,8c0,0.1,0.1,0.2,0.2,0.2c0.1,0,0.1-0.1,0.2-0.2c0.8-4.1,4-7.2,8-8   c0.1,0,0.2-0.1,0.1-0.2C110.2,25,110.2,25,110.1,25z"/>
	<path class="st11" d="M128.5,179.3c-1.3,0-2.5-0.1-3.8-0.3c-12.4-2-20.8-13.7-18.7-26.1c0.6-3.6,2.1-7,4.3-10   c3.2-4.3,5.1-9.5,5.5-14.9c1.1-15.8,8.8-32.5,22.8-49.7c17-20.9,15.6-51,13.3-67c-0.3-2,1.1-3.9,3.1-4.2c1.8-0.3,3.5,0.8,4,2.5   c5,15.5,10.8,46-6.3,75.6c-5.1,8.5-9.5,17.5-13.1,26.7c-3.7,10.2-1.4,21.5,5.9,29.5c8.4,9.4,7.5,23.7-1.8,32.1   c-0.4,0.4-0.9,0.8-1.4,1.1C138.2,177.6,133.4,179.3,128.5,179.3z M158.1,29.1c0.1,16.5-3,36.6-15.8,52.3   c-13.3,16.3-20.6,32.1-21.7,46.9c-0.4,6.4-2.7,12.5-6.5,17.6c-1.9,2.6-3.1,5.6-3.5,8.8c-0.8,9.3,5.6,17.7,14.8,19.3   c9.7,1.6,18.8-4.9,20.4-14.6c0.9-5.3-0.7-10.7-4.3-14.7l0,0c-8.5-9.4-11.2-22.7-6.8-34.6c3.7-9.5,8.2-18.7,13.4-27.4   C159.2,63.7,160.1,44.3,158.1,29.1z"/>
	<path class="st11" d="M128.2,169.3c-5.3,0-9.4-6-9.4-13.6s4.1-13.6,9.4-13.6s9.4,6,9.4,13.6S133.5,169.3,128.2,169.3z M128.2,147.2   c-2.1,0-4.4,3.7-4.4,8.6s2.3,8.6,4.4,8.6s4.4-3.7,4.4-8.6S130.3,147.2,128.2,147.2z"/>
	<path class="st11" d="M44.3,158c-7.5,0.2-14.9-1.2-21.8-4.2c-6.3-2.7-13.2-4-20-3.8c-1.4,0-2.5-1.1-2.5-2.5v-26.2   c0-5.4,4.4-9.8,9.8-9.8h3.8c9.7-0.1,19.4,0.6,28.9,2c9.3,1.4,18.8,2.1,28.2,2c8.6,0.1,17.2-0.4,25.7-1.6c3.7-0.5,7.5,0.7,10.3,3.3   c2.8,2.7,4.3,6.4,4,10.3l0,0.1c-0.3,4.4-1.9,8.7-4.5,12.3c-2.2,2.9-3.8,6.2-4.7,9.7c-0.3,1.3-1.7,2.1-3,1.8   c-4.1-0.9-8.2-1.4-12.4-1.3c-6.9-0.2-13.7,1.1-20,3.8C59.2,156.8,51.8,158.2,44.3,158z M5,145c6.6,0.1,13.2,1.5,19.3,4.1   c6.3,2.7,13.2,4,20,3.8c6.9,0.2,13.7-1.1,20-3.8c6.9-2.9,14.3-4.3,21.8-4.2c3.8,0,7.5,0.3,11.2,1c1.1-3.3,2.7-6.4,4.8-9.1l0,0   c2.1-2.8,3.3-6.1,3.5-9.6l0-0.1c0.2-2.4-0.7-4.7-2.4-6.3c-1.6-1.6-3.9-2.3-6.2-2c-8.7,1.2-17.5,1.8-26.4,1.7   c-9.7,0.1-19.4-0.6-28.9-2c-9.3-1.4-18.8-2.1-28.2-2H9.8c-2.7,0-4.8,2.2-4.8,4.8V145z"/>
	<path class="st11" d="M211.7,158c-7.5,0.2-14.9-1.2-21.8-4.2c-6.3-2.7-13.2-4-20-3.8c-3.9-0.1-7.8,0.3-11.7,1.1   c-1.3,0.3-2.6-0.5-3-1.8c-1.1-4.2-3.2-8.1-6.1-11.3c-1.9-2.1-3.4-4.5-4.5-7.1c-1.8-4.1-1.2-8.9,1.6-12.5c2.8-3.6,7.3-5.5,11.8-4.8   c9,1.3,18.1,1.9,27.2,1.8c9.5,0.1,18.9-0.5,28.2-2c9.6-1.5,19.3-2.1,28.9-2h3.8c5.4,0,9.8,4.4,9.8,9.8v26.2c0,1.4-1.1,2.5-2.5,2.5   c-6.9-0.2-13.7,1.1-20,3.8C226.6,156.8,219.1,158.2,211.7,158z M169.8,145c7.5-0.2,14.9,1.2,21.8,4.2c6.3,2.7,13.2,4,20,3.8   c6.9,0.2,13.7-1.1,20-3.8c6.1-2.6,12.7-4,19.3-4.1v-23.7c0-2.7-2.2-4.8-4.8-4.8h-3.8c-9.5-0.1-18.9,0.5-28.2,2   c-9.6,1.5-19.3,2.1-28.9,2c-9.3,0.1-18.6-0.5-27.8-1.9c-2.7-0.4-5.5,0.7-7.1,2.9c-1.7,2.1-2,5-1,7.5c0.9,2.1,2.1,4,3.6,5.7   c2.9,3.2,5.1,7,6.5,11.1C162.8,145.2,166.3,145,169.8,145z"/>
	<path class="st11" d="M245,256H11c-6.1,0-11-4.9-11-11V121.3c0-5.4,4.4-9.8,9.8-9.8h3.8c9.7-0.1,19.4,0.6,28.9,2   c9.3,1.4,18.8,2.1,28.2,2c8.6,0.1,17.2-0.4,25.7-1.6c3.7-0.5,7.5,0.7,10.3,3.3c2.8,2.7,4.3,6.4,4,10.3l0,0.1   c-0.3,4.4-1.9,8.7-4.5,12.3c-9.2,12.2-6.8,29.6,5.5,38.9c12.2,9.2,29.6,6.8,38.9-5.5c7.9-10.6,7.3-25.3-1.5-35.1   c-1.9-2.1-3.4-4.5-4.5-7.1c-1.8-4.1-1.2-8.9,1.6-12.5c2.8-3.6,7.3-5.5,11.8-4.8c9,1.3,18.1,1.9,27.2,1.8c9.5,0.1,18.9-0.5,28.2-2   c9.6-1.5,19.3-2.1,28.9-2h3.8c5.4,0,9.8,4.4,9.8,9.8V245C256,251.1,251.1,256,245,256z M9.8,116.5c-2.7,0-4.8,2.2-4.8,4.8V245   c0,3.3,2.7,6,6,6H245c3.3,0,6-2.7,6-6V121.3c0-2.7-2.2-4.8-4.8-4.8h-3.8c-9.5-0.1-18.9,0.5-28.2,2c-9.6,1.5-19.3,2.1-28.9,2   c-9.3,0.1-18.6-0.5-27.8-1.9c-2.7-0.4-5.5,0.7-7.1,2.9c-1.7,2.1-2,5-1,7.5c0.9,2.1,2.1,4,3.6,5.7c12,13.5,10.8,34.2-2.6,46.2   c-0.6,0.6-1.3,1.1-2,1.6c-5.7,4.3-12.6,6.7-19.7,6.7c-1.8,0-3.6-0.2-5.4-0.4c-17.8-2.9-29.9-19.8-27-37.6c0.9-5.2,3-10.1,6.1-14.4   c2.1-2.8,3.3-6.1,3.5-9.6l0-0.1c0.2-2.4-0.7-4.7-2.4-6.3c-1.6-1.6-3.9-2.3-6.2-2c-8.7,1.2-17.5,1.8-26.4,1.7   c-9.7,0.1-19.4-0.6-28.9-2c-9.3-1.4-18.8-2.1-28.2-2H9.8z"/>
	<path class="st11" d="M245,256H11c-6.1,0-11-4.9-11-11v-9.5c0-1.4,1.1-2.5,2.5-2.5s2.5,1.1,2.5,2.5c0,3.3,2.7,6,6,6H245   c3.3,0,6-2.7,6-6c0-1.4,1.1-2.5,2.5-2.5s2.5,1.1,2.5,2.5v9.5C256,251.1,251.1,256,245,256z M5,244.7v0.3c0,3.3,2.7,6,6,6H245   c3.3,0,6-2.7,6-6v-0.3c-1.8,1.2-3.9,1.8-6,1.8H11C8.9,246.5,6.8,245.9,5,244.7z"/>
	<path class="st11" d="M85.8,140.1c-4.2,0-7.7-3.4-7.7-7.7s3.4-7.7,7.7-7.7s7.7,3.4,7.7,7.7l0,0C93.5,136.6,90,140.1,85.8,140.1z    M85.8,129.7c-1.5,0-2.7,1.2-2.7,2.7s1.2,2.7,2.7,2.7c1.5,0,2.7-1.2,2.7-2.7l0,0C88.5,130.9,87.3,129.7,85.8,129.7z"/>
	<path class="st11" d="M45.8,147.4c-4.2,0-7.7-3.4-7.7-7.7c0-4.2,3.4-7.7,7.7-7.7s7.7,3.4,7.7,7.7l0,0   C53.5,144,50.1,147.4,45.8,147.4z M45.8,137c-1.5,0-2.7,1.2-2.7,2.7c0,1.5,1.2,2.7,2.7,2.7s2.7-1.2,2.7-2.7l0,0   C48.5,138.2,47.3,137,45.8,137L45.8,137z"/>
	<path class="st11" d="M20.5,140.1c-4.2,0-7.7-3.4-7.7-7.7c0-4.2,3.4-7.7,7.7-7.7s7.7,3.4,7.7,7.7l0,0   C28.2,136.6,24.8,140.1,20.5,140.1z M20.5,129.7c-1.5,0-2.7,1.2-2.7,2.7c0,1.5,1.2,2.7,2.7,2.7s2.7-1.2,2.7-2.7l0,0   C23.2,130.9,22,129.7,20.5,129.7z"/>
	<path class="st11" d="M169.8,140.1c-4.2,0-7.7-3.4-7.7-7.7c0-4.2,3.4-7.7,7.7-7.7c4.2,0,7.7,3.4,7.7,7.7l0,0   C177.5,136.6,174.1,140.1,169.8,140.1z M169.8,129.7c-1.5,0-2.7,1.2-2.7,2.7c0,1.5,1.2,2.7,2.7,2.7c1.5,0,2.7-1.2,2.7-2.7l0,0   C172.5,130.9,171.3,129.7,169.8,129.7z"/>
	<path class="st11" d="M209.8,147.4c-4.2,0-7.7-3.4-7.7-7.7c0-4.2,3.4-7.7,7.7-7.7c4.2,0,7.7,3.4,7.7,7.7l0,0   C217.5,144,214,147.4,209.8,147.4z M209.8,137c-1.5,0-2.7,1.2-2.7,2.7c0,1.5,1.2,2.7,2.7,2.7c1.5,0,2.7-1.2,2.7-2.7l0,0   C212.5,138.2,211.3,137,209.8,137L209.8,137z"/>
	<path class="st11" d="M235.1,140.1c-4.2,0-7.7-3.4-7.7-7.7c0-4.2,3.4-7.7,7.7-7.7c4.2,0,7.7,3.4,7.7,7.7l0,0   C242.8,136.6,239.3,140.1,235.1,140.1z M235.1,129.7c-1.5,0-2.7,1.2-2.7,2.7c0,1.5,1.2,2.7,2.7,2.7c1.5,0,2.7-1.2,2.7-2.7l0,0   C237.8,130.9,236.6,129.7,235.1,129.7z"/>
	<path class="st11" d="M107.4,124.9c-1,0-1.9-0.6-2.3-1.5c-1.3-3.2-4.6-5-8-4.6c-8.7,1.2-17.5,1.8-26.4,1.7   c-9.7,0.1-19.4-0.6-28.9-2c-9.3-1.4-18.8-2.1-28.2-2H9.8c-2.7,0-4.8,2.2-4.8,4.8c0,1.4-1.1,2.5-2.5,2.5S0,122.7,0,121.3v-9.5   c0-5.4,4.4-9.8,9.8-9.8h3.8c9.7-0.1,19.4,0.6,28.9,2c9.3,1.4,18.8,2.1,28.2,2c8.6,0.1,17.2-0.4,25.7-1.6c3.7-0.5,7.5,0.7,10.3,3.3   c2.8,2.7,4.3,6.4,4,10.3l0,0.1c-0.1,1.7-0.4,3.4-0.9,5c-0.3,1-1.2,1.7-2.2,1.8C107.5,124.9,107.5,124.9,107.4,124.9z M98.2,113.8   c2.7,0,5.4,0.9,7.5,2.5c-0.2-1.9-1-3.7-2.4-5c-1.6-1.6-3.9-2.3-6.2-2c-8.7,1.2-17.5,1.8-26.4,1.7c-9.7,0.1-19.4-0.6-28.9-2   c-9.3-1.4-18.8-2.1-28.2-2H9.8c-2.7,0-4.8,2.2-4.8,4.8v0.9c1.5-0.8,3.1-1.3,4.8-1.3h3.8c9.7-0.1,19.4,0.6,28.9,2   c9.3,1.4,18.8,2.1,28.2,2c8.6,0.1,17.2-0.4,25.7-1.6C97.1,113.8,97.6,113.8,98.2,113.8L98.2,113.8z"/>
	<path class="st11" d="M147.4,123.9L147.4,123.9c-1,0-1.9-0.6-2.3-1.4l-0.1-0.2c-0.1-0.2-0.2-0.5-0.3-0.7c-1.8-4.1-1.2-8.9,1.6-12.5   c2.8-3.6,7.3-5.5,11.8-4.8c9,1.3,18.1,1.9,27.2,1.8c9.5,0.1,18.9-0.5,28.2-2c9.6-1.5,19.3-2.1,28.9-2h3.8c5.4,0,9.8,4.4,9.8,9.8   v9.5c0,1.4-1.1,2.5-2.5,2.5s-2.5-1.1-2.5-2.5c0-2.7-2.2-4.8-4.8-4.8h-3.8c-9.5-0.1-18.9,0.5-28.2,2c-9.6,1.5-19.3,2.1-28.9,2   c-9.3,0.1-18.6-0.5-27.8-1.9c-3.2-0.4-6.3,1.1-7.8,4C149.1,123.4,148.3,123.9,147.4,123.9z M156.3,109.1c-4,0-7.3,3.1-7.6,7.1   c2.7-2,6-2.9,9.4-2.4c9,1.3,18.1,1.9,27.2,1.8c9.5,0.1,18.9-0.5,28.2-2c9.6-1.5,19.3-2.1,28.9-2h3.8c1.7,0,3.4,0.4,4.8,1.3v-0.9   c0-2.7-2.2-4.8-4.8-4.8h-3.8c-9.5-0.1-18.9,0.5-28.2,2c-9.6,1.5-19.3,2.1-28.9,2c-9.3,0.1-18.6-0.5-27.8-1.9   C157,109.1,156.6,109.1,156.3,109.1L156.3,109.1z"/>
	<path class="st11" d="M128.5,201.9c-13.7,0-25.8-7.5-32.2-20c-6.8-13-5.6-28.7,2.9-40.5c0.1-0.1,0.3-0.4,0.3-0.5   c0.7-1.2,2.3-1.5,3.5-0.8c1.1,0.7,1.5,2.1,0.9,3.3c-7.2,13.5-2.2,30.3,11.3,37.6s30.3,2.2,37.6-11.3c4.4-8.2,4.4-18.2-0.1-26.4   c0,0,0-0.1-0.1-0.1c-0.6-1.2-0.1-2.7,1.1-3.3c1.1-0.5,2.4-0.2,3.1,0.7c6.1,7.9,8.8,17.8,7.7,27.7   C162.6,187.4,147.1,201.9,128.5,201.9z M97.1,166.1c0.3,4.7,1.6,9.3,3.7,13.5c5.5,10.8,15.9,17.3,27.7,17.3   c16,0,29.4-12.6,31.1-29.3c0.1-0.6,0.1-1.3,0.1-1.9c-5.1,17.3-23.3,27.3-40.6,22.2c-7.9-2.3-14.6-7.5-18.8-14.6   C99,171.1,97.9,168.6,97.1,166.1z"/>
	<path class="st11" d="M179.8,246.2c-0.9,0-1.8-0.5-2.2-1.3l-5.8-10.7c-2.3-4.2-2.3-9.3-0.1-13.6l5.9-11.2c0-0.1,0.1-0.1,0.1-0.2   l6.9-11c1.8-2.9,1.9-6.6,0.3-9.6l-3.6-6.5c-2.1-3.8-2.4-8.4-0.8-12.4l2.3-5.7c0.5-1.3,2-1.9,3.3-1.4s1.9,2,1.4,3.3l-2.3,5.7   c-1.1,2.6-0.9,5.6,0.5,8.1l3.6,6.5c2.6,4.6,2.4,10.2-0.4,14.7l-6.9,10.9l-5.9,11.1c-1.5,2.8-1.4,6.1,0.1,8.8l5.8,10.7   c0.7,1.2,0.2,2.7-1,3.4C180.6,246.1,180.2,246.2,179.8,246.2L179.8,246.2z"/>
	<path class="st11" d="M183.7,206.9c-0.6,0-1.1-0.2-1.6-0.6l-7.9-6.5c-1.5-1.2-2.5-2.9-3-4.8c-0.3-1.4-1.4-2.5-2.7-2.9   c-1.3-0.4-2.1-1.7-1.7-3.1c0.4-1.3,1.7-2.1,3.1-1.7c3.1,0.9,5.5,3.4,6.3,6.5c0.2,0.8,0.7,1.6,1.3,2.1l7.9,6.5   c1.1,0.9,1.2,2.5,0.3,3.5C185.2,206.6,184.5,206.9,183.7,206.9L183.7,206.9z"/>
	<path class="st11" d="M179.3,224.3h-5.4c-1.4,0-2.5-1.1-2.5-2.5s1.1-2.5,2.5-2.5h5.4c2.3,0,4.5-0.8,6.2-2.2c2.7-2.2,6-3.4,9.4-3.4   h3.2c1.4,0,2.5,1.1,2.5,2.5s-1.1,2.5-2.5,2.5h-3.2c-2.3,0-4.5,0.8-6.2,2.2C186.1,223.1,182.7,224.3,179.3,224.3z"/>
	<path class="st11" d="M174,235.5c-0.3,0-0.6-0.1-0.9-0.2l-2.8-1.1c-4.4-1.7-8.2-4.7-10.9-8.5c-0.8-1.1-0.5-2.7,0.6-3.5   s2.7-0.5,3.5,0.6c2.1,3,5.1,5.4,8.6,6.7l2.8,1.1c1.3,0.5,1.9,1.9,1.4,3.2C175.9,234.9,175,235.5,174,235.5L174,235.5z"/>
	<path class="st11" d="M91.4,246.5c-0.9,0-1.8-0.5-2.2-1.3l-1.2-2.2l-6.9-10.9c-2.8-4.4-3-10.1-0.4-14.7l3.6-6.5   c1.4-2.5,1.6-5.4,0.5-8.1l-2.3-5.7c-0.5-1.3,0.1-2.7,1.4-3.3c1.3-0.5,2.7,0.1,3.3,1.4l2.3,5.7c1.6,4,1.4,8.6-0.8,12.4l-3.6,6.5   c-1.7,3-1.6,6.7,0.3,9.6l6.9,11c0,0.1,0.1,0.1,0.1,0.2l1.2,2.3c0.6,1.2,0.2,2.7-1,3.4C92.2,246.4,91.8,246.5,91.4,246.5L91.4,246.5   z"/>
	<path class="st11" d="M86.3,238c-1.4,0-2.5-1.1-2.5-2.5c0-0.7,0.3-1.5,0.9-1.9l7.9-6.5c0.7-0.5,1.1-1.3,1.3-2.1   c0.9-4,4.5-6.9,8.7-6.8h0.7c1.4,0,2.5,1.1,2.5,2.5s-1.1,2.5-2.5,2.5h-0.7c-1.8,0-3.4,1.2-3.8,3c-0.5,1.9-1.5,3.6-3,4.8l-7.9,6.5   C87.5,237.8,86.9,238,86.3,238z"/>
</g>
</svg>
