<svg height="512pt" viewBox="0 -18 512.02135 512" width="512pt" xmlns="http://www.w3.org/2000/svg"><path d="m512.019531 76.28125v182.90625c-.046875 12.851562-10.453125 23.257812-23.304687 23.304688h-38.308594c-23.304688 0-46.347656 1.238281-65.855469 15.714843-6.378906 5.011719-12.34375 10.53125-17.832031 16.507813-68.238281 71.503906-175.492188 83.066406-244.875 152.453125-22.953125 22.949219-45.90625 0-45.90625-22.953125 0-21.628906 40.960938-64.707032 74.507812-88.804688 3.882813-2.824218 7.679688-5.5625 11.386719-8.5625l3.792969-3.089844c14.433594-10.421874 26.820312-23.40625 36.546875-38.3125.441406-.617187 1.679687-3.089843 3.179687-6.089843 1.808594-3.613281 1.617188-7.902344-.503906-11.339844-2.121094-3.433594-5.875-5.523437-9.914062-5.523437h-159.601563c-9.371093.019531-18.359375-3.699219-24.980469-10.328126-9.300781-9.347656-12.664062-23.074218-8.742187-35.664062 5.539063-14.453125 19.222656-24.164062 34.691406-24.628906l.179688-.792969c-9.671875-2.171875-17.988281-8.296875-22.9375-16.886719-4.949219-8.585937-6.074219-18.855468-3.105469-28.308594 5.539062-14.457031 19.21875-24.167968 34.691406-24.628906h16.683594c-9.367188.015625-18.359375-3.703125-24.980469-10.332031-9.296875-9.347656-12.660156-23.074219-8.738281-35.660156 5.539062-14.457031 19.21875-24.167969 34.691406-24.628907h42.195313c-11.269531.019532-21.875-5.34375-28.539063-14.433593-6.667968-9.089844-8.589844-20.816407-5.179687-31.558594 5.539062-14.457031 19.21875-24.167969 34.691406-24.6289062h196.589844s62.765625 0 99.046875 39.7226562c4.148437 4.503906 4.5 13.242187 22.15625 13.242187h64.96875c12.851562.046876 23.257812 10.453126 23.304687 23.304688zm0 0" fill="#fdd7ad"/><path d="m476.710938 247.183594c-4.875 0-8.828126-3.953125-8.828126-8.828125v-17.65625c0-4.875 3.953126-8.828125 8.828126-8.828125s8.828124 3.953125 8.828124 8.828125v17.65625c0 4.875-3.953124 8.828125-8.828124 8.828125zm0 0" fill="#fee7ce"/><path d="m476.710938 194.21875c-4.875 0-8.828126-3.953125-8.828126-8.828125v-88.277344c0-4.875 3.953126-8.828125 8.828126-8.828125s8.828124 3.953125 8.828124 8.828125v88.277344c0 4.875-3.953124 8.828125-8.828124 8.828125zm0 0" fill="#fee7ce"/><g fill="#cbb292"><path d="m123.609375 132.425781c0 4.875-3.953125 8.828125-8.828125 8.828125h-52.96875c-9.367188.015625-18.359375-3.703125-24.980469-10.332031-1.492187-1.492187-2.851562-3.117187-4.058593-4.851563-5.863282-8.472656-7.734376-19.082031-5.121094-29.042968 1.5 6.15625 4.675781 11.78125 9.179687 16.242187 6.621094 6.628907 15.613281 10.34375 24.980469 10.328125h52.96875c4.875 0 8.828125 3.953125 8.828125 8.828125zm0 0"/><path d="m141.261719 61.804688c0 4.875-3.953125 8.828124-8.828125 8.828124h-27.453125c-10.945313.03125-21.289063-5.03125-27.980469-13.695312s-8.976562-19.945312-6.179688-30.53125c1.5 6.15625 4.675782 11.78125 9.179688 16.242188 6.621094 6.628906 15.613281 10.34375 24.980469 10.328124h27.453125c4.875 0 8.828125 3.953126 8.828125 8.828126zm0 0"/><path d="m102.949219 203.046875c0 4.875-3.949219 8.824219-8.824219 8.824219h-53.9375c-1.28125.019531-2.546875-.25-3.707031-.792969-6.558594-1.46875-12.558594-4.773437-17.304688-9.535156-.574219-.542969-1.105469-1.132813-1.585937-1.765625-7.691406-8.792969-10.535156-20.824219-7.59375-32.128906 1.5 6.15625 4.679687 11.777343 9.179687 16.242187 5.867188 5.695313 13.429688 9.320313 21.539063 10.328125h53.410156c4.875 0 8.824219 3.949219 8.824219 8.828125zm0 0"/><path d="m223.007812 281.699219c-1.503906 3-2.738281 5.472656-3.179687 6.089843-7.148437 11.316407-16.058594 21.421876-26.394531 29.925782 2.824218-3.617188 5.738281-7.589844 8.738281-12.269532.441406-.617187 1.679687-3.089843 3.179687-6.089843 1.777344-3.613281 1.570313-7.886719-.542968-11.3125-2.117188-3.425781-5.847656-5.523438-9.875-5.550781h-159.601563c-9.371093.019531-18.359375-3.699219-24.980469-10.328126-3.183593-3.234374-5.730468-7.035156-7.503906-11.210937-1.882812-4.34375-2.84374975-9.035156-2.8281248-13.769531.0039063-1.445313.0898438-2.890625.2656248-4.324219.167969-1.554687.460938-3.089844.882813-4.59375 1.5 6.160156 4.679687 11.78125 9.183593 16.246094 6.621094 6.625 15.609376 10.34375 24.980469 10.328125h177.257813c4.039062-.003906 7.789062 2.085937 9.914062 5.523437 2.121094 3.433594 2.3125 7.726563.503906 11.335938zm0 0"/></g></svg>